<svg width="7" height="13" viewBox="0 0 7 13" fill="none" xmlns="http://www.w3.org/2000/svg">
<path d="M0.449753 0.441667L0.249741 0.641666C0.21887 0.672419 0.194387 0.708964 0.177673 0.749206C0.16096 0.789447 0.152344 0.832592 0.152344 0.876166C0.152344 0.919741 0.16096 0.962886 0.177673 1.00313C0.194387 1.04337 0.21887 1.07991 0.249741 1.11067L5.64474 6.50267L0.249741 11.8977C0.21887 11.9284 0.194387 11.965 0.177673 12.0052C0.16096 12.0454 0.152344 12.0886 0.152344 12.1322C0.152344 12.1757 0.16096 12.2189 0.177673 12.2591C0.194387 12.2994 0.21887 12.3359 0.249741 12.3667L0.449753 12.5667C0.480505 12.5975 0.51704 12.622 0.557281 12.6387C0.597523 12.6555 0.640676 12.6641 0.68425 12.6641C0.727824 12.6641 0.770962 12.6555 0.811203 12.6387C0.851444 12.622 0.887994 12.5975 0.918747 12.5667L6.74374 6.74467C6.77461 6.71391 6.79911 6.67737 6.81583 6.63713C6.83254 6.59689 6.84114 6.55374 6.84114 6.51017C6.84114 6.46659 6.83254 6.42345 6.81583 6.38321C6.79911 6.34296 6.77461 6.30642 6.74374 6.27567L0.918747 0.453667C0.888935 0.421759 0.853061 0.396104 0.813232 0.3782C0.773403 0.360295 0.730422 0.350498 0.686768 0.349381C0.643114 0.348265 0.599668 0.355849 0.558975 0.371694C0.518283 0.387538 0.481158 0.411325 0.449753 0.441667Z" fill="#1D4ED8"/>
</svg>
